# Made in Blockbench 5.1.6
mtllib materials.mtl

o mesh
v 0.5 -0.16875 0.5
v 0.5 -0.5 -0.5
v 0.5 -0.5 0.5
v -0.5 -0.16875 0.5
v -0.5 -0.5 -0.5
v -0.5 -0.5 0.5
vt 0 0.3125
vt 0 0
vt 1 0
vt 1 0.3125
vt 0 0
vt 1 0
vt 0 0
vt 1 0
vt 1 1
vt 0 1
vt 1 0
vt 1 1
vt 0 1
vt 0 0
vt 1 0
vt 1 0.3125
vt 0 0.3125
vt 0 0
vn 1 0 0
vn -1 0 0
vn 0 0.9492749251893403 -0.314447318968969
vn 0 -1 0
vn 0 0 1
usemtl m_df29e296-2b06-bf0c-4ea3-97baa19366d6
f 1/1/1 3/2/1 2/3/1
f 4/4/2 5/5/2 6/6/2
f 4/7/3 1/8/3 2/9/3 5/10/3
f 2/11/4 3/12/4 6/13/4 5/14/4
f 3/15/5 1/16/5 4/17/5 6/18/5