# Made in Blockbench 5.1.6
mtllib materials.mtl

o plane
v -0.5000000000000001 -0.5 -0.49999999999999994
v -0.49999999999999994 -0.5 0.5000000000000001
v 0.49999999999999994 -0.5 -0.5000000000000001
v 0.5000000000000001 -0.5 0.49999999999999994
v 0.5000000000000002 0.5 0.49999999999999983
v -0.49999999999999983 0.5 0.5000000000000002
v -0.49999999999999983 -0.5 0.5000000000000002
v 0.5000000000000002 -0.5 0.49999999999999983
v 0.49999999999999994 -0.5 -0.5000000000000002
v 0.4999999999999999 -0.0625 -0.06250000000000017
v 0.5000000000000003 -0.5 0.49999999999999983
v 0.5000000000000001 0.5 0.49999999999999983
v -0.5000000000000001 -0.5 -0.49999999999999983
v -0.5000000000000001 -0.0625 -0.062499999999999827
v -0.4999999999999997 -0.5 0.5000000000000002
v -0.49999999999999994 0.5 0.5000000000000002
v 0.5000000000000002 0.49939416421299976 0.49939416421299837
v 0.4999999999999997 -0.4993941642129996 -0.4993941642129989
v -0.4999999999999997 0.49939416421299954 0.4993941642129989
v -0.5000000000000002 -0.4993941642129997 -0.49939416421299837
vt 1 0
vt 1 1
vt 0 1
vt 0 0
vt 0 1
vt 1 1
vt 1 0
vt 0 0
vt 1 0
vt 1 1
vt 0 1
vt 0 0
vt 1 0
vt 1 1
vt 0 1
vt 0 0
vt 1 0
vt 1 1
vt 0 1
vt 0 0
vn 0 1 0
vn -3.4450928483976665e-16 0 -1
vn -8.659560562354934e-17 0.7071067811865476 -0.7071067811865476
vn -8.659560562354934e-17 0.7071067811865476 -0.7071067811865476
vn -5.58194766526271e-16 0.7071067811865469 -0.7071067811865482
usemtl m_1f52ab72-95b6-d317-5a1e-e294a9c19797
f 1/1/1 2/2/1 4/3/1 3/4/1
f 6/5/2 5/6/2 8/7/2 7/8/2
f 9/9/3 10/10/3 12/11/3 11/12/3
f 13/13/4 14/14/4 16/15/4 15/16/4
f 17/17/5 18/18/5 20/19/5 19/20/5