# Made in Blockbench 5.1.6
mtllib materials.mtl

o plane
v 0.5000000000000001 0.4999999999999999 0.5
v 0.5000000000000001 -2.465190328815662e-32 -0.5
v 0.4999999999999999 -0.5000000000000001 0.5
v 0.4999999999999999 -0.5000000000000001 -0.5
v -0.4999999999999999 0.5000000000000003 0.4999999999999998
v -0.4999999999999999 4.163336342344337e-16 -0.5000000000000002
v -0.5000000000000001 -0.4999999999999998 -0.5000000000000002
v -0.5000000000000001 -0.4999999999999998 0.4999999999999998
v 0.49999999999999994 0.5000000000000003 0.4999999999999998
v 0.49999999999999994 4.440892098500626e-16 -0.5000000000000002
v 0.5000000000000002 -0.5 -0.5000000000000002
v 0.5000000000000002 -0.5 0.4999999999999998
vt 1 0
vt 1 1
vt 0 1
vt 0 0
vt 1.11803125 1
vt 0 1
vt 0 0
vt 1.11803125 0
vt 0.5 1
vt 0 1
vt 0 0
vt 0.5 0
vt 1 1
vt 0 1
vt 0 0
vt 1 0
vt 1 1
vt 0 1
vt 0 0
vt 1 0
vt 0 1
vt 1 1
vt 1 0
vt 0 0
vn -1 4.4408920985006257e-16 -2.2204460492503126e-16
vn 4.965068306494547e-16 0.8944271909999161 -0.4472135954999579
vn 2.220446049250313e-16 -9.860761315262645e-32 -1
vn -3.3306690738754696e-16 -1 0
vn -2.220446049250313e-16 4.930380657631324e-32 1
vn 1 5.551115123125776e-16 -2.775557561562889e-16
usemtl m_d385bfa5-de42-7c54-878b-2f5bf94b1cd4
f 5/1/1 6/2/1 7/3/1 8/4/1
f 6/5/2 5/6/2 1/7/2 2/8/2
f 7/9/3 6/10/3 2/11/3 4/12/3
f 8/13/4 7/14/4 4/15/4 3/16/4
f 5/17/5 8/18/5 3/19/5 1/20/5
f 11/21/6 10/22/6 9/23/6 12/24/6