# Made in Blockbench 5.1.6
mtllib materials.mtl

o mesh
v 0.5 -0.25 0.5
v 0.5 -0.5 0.5
v 0.5 -0.5 -0.5
v -0.5 -0.25 0.5
v -0.5 -0.5 -0.5
v -0.5 -0.5 0.5
vt 0 0.25
vt 0 0
vt 1 0
vt 1 0.25
vt 0 0
vt 1 0
vt 0 0.0625
vt 1 0.0625
vt 1 1
vt 0 1
vt 1 0
vt 1 1
vt 0 1
vt 0 0
vt 1 0
vt 1 0.25
vt 0 0.25
vt 0 0
vn 1 0 0
vn -1 0 0
vn 0 0.9701425001453319 -0.24253562503633297
vn 0 -1 0
vn 0 0 1
usemtl none
f 1/1/1 2/2/1 3/3/1
f 4/4/2 5/5/2 6/6/2
f 4/7/3 1/8/3 3/9/3 5/10/3
f 3/11/4 2/12/4 6/13/4 5/14/4
f 2/15/5 1/16/5 4/17/5 6/18/5