# Made in Blockbench 5.1.6
mtllib materials.mtl

o mesh
v -0.375 0.5 0.5
v -0.4375 0.5 0.5
v -0.4375 -0.5 0.5
v -0.375 -0.5 0.5
v -0.375 0.5 0.4375
v -0.4375 0.5 0.4375
v -0.375 -0.5 0.4375
v -0.5 0.5 0.5
v -0.5 0.5 0.4375
v -0.5 -0.5 0.4375
v -0.5 -0.5 0.5
v -0.5 0.5 0.375
v -0.4375 0.5 0.375
v -0.4375 -0.5 0.375
v -0.5 -0.5 0.375
v 0.5 0.5 0.375
v 0.5 0.5 0.4375
v 0.5 -0.5 0.4375
v 0.5 -0.5 0.375
v 0.4375 0.5 0.375
v 0.4375 0.5 0.4375
v 0.4375 -0.5 0.375
v 0.5 0.5 0.5
v 0.4375 0.5 0.5
v 0.4375 -0.5 0.5
v 0.5 -0.5 0.5
v 0.375 0.5 0.5
v 0.375 0.5 0.43750000000000006
v 0.375 -0.5 0.43750000000000006
v 0.375 -0.5 0.5
v -0.49999999999999994 0.5 -0.375
v -0.5 0.5 -0.4375
v -0.5 -0.5 -0.4375
v -0.49999999999999994 -0.5 -0.375
v -0.43749999999999994 0.5 -0.375
v -0.4375 0.5 -0.4375
v -0.43749999999999994 -0.5 -0.375
v -0.5 0.5 -0.5
v -0.4375 0.5 -0.5
v -0.4375 -0.5 -0.5
v -0.5 -0.5 -0.5
v -0.375 0.5 -0.5
v -0.375 0.5 -0.4375
v -0.375 -0.5 -0.4375
v -0.375 -0.5 -0.5
v 0.375 0.5 -0.5
v 0.4375 0.5 -0.5
v 0.4375 -0.5 -0.5
v 0.375 -0.5 -0.5
v 0.375 0.5 -0.4375
v 0.4375 0.5 -0.4375
v 0.375 -0.5 -0.4375
v 0.5 0.5 -0.5
v 0.5 0.5 -0.4375
v 0.5 -0.5 -0.4375
v 0.5 -0.5 -0.5
v 0.5 0.5 -0.375
v 0.4375 0.5 -0.375
v 0.4375 -0.5 -0.375
v 0.5 -0.5 -0.375
v 0.4375 0.5 -0.4375
v 0.4375 0.5 0.4375
v 0.4375 -0.5 0.4375
v 0.4375 -0.5 -0.4375
v -0.4375 -0.5 0.4375
v -0.4375 0.5 0.4375
v -0.4375 0.5 -0.4375
v -0.4375 -0.5 -0.4375
v -0.49999999999999994 -0.5 0.125
v -0.49999999999999994 0.5 0.125
v -0.5 0.5 -0.125
v -0.5 -0.5 -0.125
v -0.43749999999999994 0.5 0.125
v -0.4375 0.5 -0.125
v -0.4375 -0.5 -0.125
v -0.43749999999999994 -0.5 0.125
v 0.5 -0.5 -0.125
v 0.5 0.5 -0.125
v 0.5 0.5 0.125
v 0.5 -0.5 0.125
v 0.4375 0.5 -0.125
v 0.4375 0.5 0.125
v 0.4375 -0.5 0.125
v 0.4375 -0.5 -0.125
v 0.125 -0.5 0.5
v 0.125 0.5 0.5
v -0.125 0.5 0.5
v -0.125 -0.5 0.5
v 0.125 0.5 0.4375
v -0.125 0.5 0.43750000000000006
v -0.125 -0.5 0.43750000000000006
v 0.125 -0.5 0.4375
v -0.125 -0.5 -0.5
v -0.125 0.5 -0.5
v 0.125 0.5 -0.5
v 0.125 -0.5 -0.5
v -0.12499999999999994 0.5 -0.4375
v 0.125 0.5 -0.4375
v 0.125 -0.5 -0.4375
v -0.12499999999999994 -0.5 -0.4375
v 0.5 -0.375 0.5
v 0.5 -0.375 -0.5
v 0.5 -0.5 0.5
v 0.5 -0.5 -0.5
v -0.5 -0.375 0.5
v -0.5 -0.375 -0.5
v -0.5 -0.5 0.5
v -0.5 -0.5 -0.5
vt 0.125 1
vt 0.0625 1
vt 0.0625 0
vt 0.125 0
vt 0.125 0.0625
vt 0.0625 0.0625
vt 0.0625 0
vt 0.125 0
vt 1 1
vt 0.9375 1
vt 0.9375 0
vt 1 0
vt 0.0625 0
vt 0.125 0
vt 0.125 1
vt 0.0625 1
vt 0.9375 1
vt 0.875 1
vt 0.875 0
vt 0.9375 0
vt 0 0
vt 0.0625 0
vt 0.0625 1
vt 0 1
vt 0.0625 0.0625
vt 0 0.0625
vt 0 0
vt 0.0625 0
vt 0.875 0
vt 0.9375 0
vt 0.9375 1
vt 0.875 1
vt 0 0.0625
vt 0.0625 0.0625
vt 0.0625 0.125
vt 0 0.125
vt 0.125 1
vt 0.0625 1
vt 0.0625 0
vt 0.125 0
vt 1 0.125
vt 0.9375 0.125
vt 0.9375 0.0625
vt 1 0.0625
vt 1 1
vt 0.9375 1
vt 0.9375 0
vt 1 0
vt 0.0625 0
vt 0.125 0
vt 0.125 1
vt 0.0625 1
vt 0.9375 1
vt 0.875 1
vt 0.875 0
vt 0.9375 0
vt 0 0
vt 0.0625 0
vt 0.0625 1
vt 0 1
vt 1 0.0625
vt 0.9375 0.0625
vt 0.9375 0
vt 1 0
vt 0.875 0
vt 0.9375 0
vt 0.9375 1
vt 0.875 1
vt 0.875 0
vt 0.9375 0
vt 0.9375 0.0625
vt 0.875 0.0625
vt 0.125 1
vt 0.0625 1
vt 0.0625 0
vt 0.125 0
vt 0.0625 0.9375
vt 0 0.9375
vt 0 0.875
vt 0.0625 0.875
vt 1 1
vt 0.9375 1
vt 0.9375 0
vt 1 0
vt 0.0625 0
vt 0.125 0
vt 0.125 1
vt 0.0625 1
vt 0.9375 1
vt 0.875 1
vt 0.875 0
vt 0.9375 0
vt 0 0
vt 0.0625 0
vt 0.0625 1
vt 0 1
vt 0.0625 1
vt 0 1
vt 0 0.9375
vt 0.0625 0.9375
vt 0.875 0
vt 0.9375 0
vt 0.9375 1
vt 0.875 1
vt 0.0625 0.9375
vt 0.125 0.9375
vt 0.125 1
vt 0.0625 1
vt 0.125 1
vt 0.0625 1
vt 0.0625 0
vt 0.125 0
vt 0.9375 1
vt 0.875 1
vt 0.875 0.9375
vt 0.9375 0.9375
vt 1 1
vt 0.9375 1
vt 0.9375 0
vt 1 0
vt 0.0625 0
vt 0.125 0
vt 0.125 1
vt 0.0625 1
vt 0.9375 1
vt 0.875 1
vt 0.875 0
vt 0.9375 0
vt 0 0
vt 0.0625 0
vt 0.0625 1
vt 0 1
vt 1 1
vt 0.9375 1
vt 0.9375 0.9375
vt 1 0.9375
vt 0.875 0
vt 0.9375 0
vt 0.9375 1
vt 0.875 1
vt 0.9375 0.875
vt 1 0.875
vt 1 0.9375
vt 0.9375 0.9375
vt 0.9375 1
vt 0.0625 1
vt 0.0625 0
vt 0.9375 0
vt 0.9375 0
vt 0.9375 1
vt 0.0625 1
vt 0.0625 0
vt 0.0625 0.0625
vt 0.9375 0.0625
vt 0.9375 0.9375
vt 0.0625 0.9375
vt 0.07105469537448009 0
vt 0.0625 0.9962018514058248
vt 0.92894530462552 1
vt 0.9375 0.0037981485941751547
vt 0.9375 1
vt 0.0625 1
vt 0.0625 0
vt 0.9375 0
vt 0.625 0
vt 0.625 1
vt 0.375 1
vt 0.375 0
vt 0.060463224066381605 0.4375
vt 0 0.43723268017349215
vt 0.0020367759336183955 0.1875
vt 0.0625 0.18802578397930048
vt 0.5625 0
vt 0.625 0
vt 0.625 1
vt 0.5625 1
vt 0.4375 1
vt 0.375 1
vt 0.375 0
vt 0.4375 0
vt 0.625 0
vt 0.625 1
vt 0.375 1
vt 0.375 0
vt 0.9979632240663816 0.625
vt 0.9375 0.6247326801734921
vt 0.9395367759336184 0.375
vt 1 0.3755257839793005
vt 0.5625 0
vt 0.625 0
vt 0.625 1
vt 0.5625 1
vt 0.4375 1
vt 0.375 1
vt 0.375 0
vt 0.4375 0
vt 0.625 0
vt 0.625 1
vt 0.375 1
vt 0.375 0
vt 0.6247739657022979 0.000002178843867439717
vt 0.625 0.06249999999999989
vt 0.375 0.0625
vt 0.37503268931165296 0
vt 0.5625 0
vt 0.625 0
vt 0.625 1
vt 0.5625 1
vt 0.4375 1
vt 0.375 1
vt 0.375 0
vt 0.4375 0
vt 0.625 0
vt 0.625 1
vt 0.375 1
vt 0.375 0
vt 0.6247739657022979 0.9375021788438674
vt 0.625 0.9999999999999999
vt 0.375 1
vt 0.37503268931165296 0.9375
vt 0.5625 0
vt 0.625 0
vt 0.625 1
vt 0.5625 1
vt 0.4375 1
vt 0.375 1
vt 0.375 0
vt 0.4375 0
vt 1 0.125
vt 0 0.125
vt 0 0
vt 1 0
vt 1 0
vt 1 0.125
vt 0 0.125
vt 0 0
vt 0 0
vt 1 0
vt 1 1
vt 0 1
vt 1 0
vt 1 1
vt 0 1
vt 0 0
vt 1 0
vt 1 0.125
vt 0 0.125
vt 0 0
vt 1 0.125
vt 0 0.125
vt 0 0
vt 1 0
vn 0 0 1
vn 0 1 0
vn -1 0 0
vn 1 0 0
vn 0 0 -1
vn 0 0 1
vn 0 1 0
vn -1 0 0
vn 0 1 0
vn 1 0 0
vn 0 1 0
vn 0 0 1
vn 0 0 -1
vn -1 0 0
vn 1 0 0
vn 0 1 0
vn 0 0 1
vn 0 1 0
vn -1 0 8.881784197001252e-16
vn 0 1 0
vn 0 0 -1
vn 0 0 1
vn 1 0 0
vn -1 0 0
vn 0 1 0
vn 0 0 -1
vn 0 1 0
vn 0 0 -1
vn 0 1 0
vn 1 0 0
vn -1 0 0
vn 0 0 1
vn 0 0 -1
vn 0 1 0
vn 1 0 0
vn 0 1 0
vn 1 0 0
vn -1 0 0
vn 0 1 0
vn 0 0 1
vn 0 0 -1
vn -1 0 2.220446049250313e-16
vn 0 1 0
vn 0 0 1
vn 0 0 -1
vn 1 0 0
vn 0 1 0
vn 0 0 -1
vn 0 0 1
vn 0 0 1
vn 0 1 0
vn 1 0 0
vn -1 0 0
vn 0 0 -1
vn 0 1 0
vn -1 0 8.881784197001252e-16
vn 1 0 0
vn 1 0 0
vn -1 0 0
vn 0 1 0
vn 0 -1 0
vn 0 0 1
vn 0 0 -1
usemtl m_623f6af3-0a42-d13f-bc10-2cfdcaf6acc2
f 1/1/1 2/2/1 3/3/1 4/4/1
f 1/5/2 5/6/2 6/7/2 2/8/2
f 8/9/3 9/10/3 10/11/3 11/12/3
f 4/13/4 7/14/4 5/15/4 1/16/4
f 12/17/5 13/18/5 14/19/5 15/20/5
f 11/21/6 3/22/6 2/23/6 8/24/6
f 2/25/7 6/26/7 9/27/7 8/28/7
f 15/29/8 10/30/8 9/31/8 12/32/8
f 12/33/9 9/34/9 6/35/9 13/36/9
f 16/37/10 17/38/10 18/39/10 19/40/10
f 16/41/11 20/42/11 21/43/11 17/44/11
f 23/45/12 24/46/12 25/47/12 26/48/12
f 19/49/13 22/50/13 20/51/13 16/52/13
f 27/53/14 28/54/14 29/55/14 30/56/14
f 26/57/15 18/58/15 17/59/15 23/60/15
f 17/61/16 21/62/16 24/63/16 23/64/16
f 30/65/17 25/66/17 24/67/17 27/68/17
f 27/69/18 24/70/18 21/71/18 28/72/18
f 31/73/19 32/74/19 33/75/19 34/76/19
f 31/77/20 35/78/20 36/79/20 32/80/20
f 38/81/21 39/82/21 40/83/21 41/84/21
f 34/85/22 37/86/22 35/87/22 31/88/22
f 42/89/23 43/90/23 44/91/23 45/92/23
f 41/93/24 33/94/24 32/95/24 38/96/24
f 32/97/25 36/98/25 39/99/25 38/100/25
f 45/101/26 40/102/26 39/103/26 42/104/26
f 42/105/27 39/106/27 36/107/27 43/108/27
f 46/109/28 47/110/28 48/111/28 49/112/28
f 46/113/29 50/114/29 51/115/29 47/116/29
f 53/117/30 54/118/30 55/119/30 56/120/30
f 49/121/31 52/122/31 50/123/31 46/124/31
f 57/125/32 58/126/32 59/127/32 60/128/32
f 56/129/33 48/130/33 47/131/33 53/132/33
f 47/133/34 51/134/34 54/135/34 53/136/34
f 60/137/35 55/138/35 54/139/35 57/140/35
f 57/141/36 54/142/36 51/143/36 58/144/36
f 61/145/37 62/146/37 63/147/37 64/148/37
f 65/149/38 66/150/38 67/151/38 68/152/38
f 66/153/39 62/154/39 61/155/39 67/156/39
f 63/157/40 62/158/40 66/159/40 65/160/40
f 67/161/41 61/162/41 64/163/41 68/164/41
f 69/165/42 70/166/42 71/167/42 72/168/42
f 70/169/43 73/170/43 74/171/43 71/172/43
f 69/173/44 76/174/44 73/175/44 70/176/44
f 71/177/45 74/178/45 75/179/45 72/180/45
f 77/181/46 78/182/46 79/183/46 80/184/46
f 78/185/47 81/186/47 82/187/47 79/188/47
f 77/189/48 84/190/48 81/191/48 78/192/48
f 79/193/49 82/194/49 83/195/49 80/196/49
f 85/197/50 86/198/50 87/199/50 88/200/50
f 86/201/51 89/202/51 90/203/51 87/204/51
f 85/205/52 92/206/52 89/207/52 86/208/52
f 87/209/53 90/210/53 91/211/53 88/212/53
f 93/213/54 94/214/54 95/215/54 96/216/54
f 94/217/55 97/218/55 98/219/55 95/220/55
f 93/221/56 100/222/56 97/223/56 94/224/56
f 95/225/57 98/226/57 99/227/57 96/228/57
f 102/229/58 101/230/58 103/231/58 104/232/58
f 107/233/59 105/234/59 106/235/59 108/236/59
f 105/237/60 101/238/60 102/239/60 106/240/60
f 104/241/61 103/242/61 107/243/61 108/244/61
f 103/245/62 101/246/62 105/247/62 107/248/62
f 106/249/63 102/250/63 104/251/63 108/252/63