# Made in Blockbench 5.1.6
mtllib materials.mtl

o mesh
v -0.5 0.5 0.5
v -0.375 0.5 0.5
v -0.5 -0.5 0.5
v -0.375 -0.5 0.5
v -0.5 0.5 0.375
v -0.5 -0.5 0.375
v -0.4375 0.5 0.375
v -0.4375 -0.5 0.375
v -0.4375 -0.5 0.5
v -0.4375 0.5 0.5
v -0.375 0.5 0.4375
v -0.375 -0.5 0.4375
v -0.4375 -0.5 0.4375
v -0.5 -0.5 0.4375
v -0.5 0.5 0.4375
v -0.4375 0.5 0.4375
v 0.5 0.5 0.5
v 0.5 0.5 0.375
v 0.5 -0.5 0.5
v 0.5 -0.5 0.375
v 0.375 0.5 0.5
v 0.375 -0.5 0.5
v 0.375 0.5 0.43750000000000006
v 0.375 -0.5 0.43750000000000006
v 0.5 -0.5 0.4375
v 0.5 0.5 0.4375
v 0.4375 0.5 0.375
v 0.4375 -0.5 0.375
v 0.4375 -0.5 0.4375
v 0.4375 -0.5 0.5
v 0.4375 0.5 0.5
v 0.4375 0.5 0.4375
v -0.5 0.5 -0.5
v -0.49999999999999994 0.5 -0.375
v -0.5 -0.5 -0.5
v -0.49999999999999994 -0.5 -0.375
v -0.375 0.5 -0.5
v -0.375 -0.5 -0.5
v -0.375 0.5 -0.4375
v -0.375 -0.5 -0.4375
v -0.5 -0.5 -0.4375
v -0.5 0.5 -0.4375
v -0.43749999999999994 0.5 -0.375
v -0.43749999999999994 -0.5 -0.375
v -0.4375 -0.5 -0.4375
v -0.4375 -0.5 -0.5
v -0.4375 0.5 -0.5
v -0.4375 0.5 -0.4375
v 0.5 0.5 -0.5
v 0.375 0.5 -0.5
v 0.5 -0.5 -0.5
v 0.375 -0.5 -0.5
v 0.5 0.5 -0.375
v 0.5 -0.5 -0.375
v 0.4375 0.5 -0.375
v 0.4375 -0.5 -0.375
v 0.4375 -0.5 -0.5
v 0.4375 0.5 -0.5
v 0.375 0.5 -0.4375
v 0.375 -0.5 -0.4375
v 0.4375 -0.5 -0.4375
v 0.5 -0.5 -0.4375
v 0.5 0.5 -0.4375
v 0.4375 0.5 -0.4375
v 0.4375 0.5 0.4375
v 0.4375 0.5 -0.4375
v 0.4375 -0.5 0.4375
v 0.4375 -0.5 -0.4375
v -0.4375 0.5 0.4375
v -0.4375 0.5 -0.4375
v -0.4375 -0.5 0.4375
v -0.4375 -0.5 -0.4375
v -0.49999999999999994 0.5 0.125
v -0.5 0.5 -0.125
v -0.49999999999999994 -0.5 0.125
v -0.5 -0.5 -0.125
v -0.43749999999999994 0.5 0.125
v -0.43749999999999994 -0.5 0.125
v -0.4375 -0.5 -0.125
v -0.4375 0.5 -0.125
v 0.5 0.5 -0.125
v 0.5 0.5 0.125
v 0.5 -0.5 -0.125
v 0.5 -0.5 0.125
v 0.4375 0.5 -0.125
v 0.4375 -0.5 -0.125
v 0.4375 -0.5 0.125
v 0.4375 0.5 0.125
v 0.125 0.5 0.5
v -0.125 0.5 0.5
v 0.125 -0.5 0.5
v -0.125 -0.5 0.5
v 0.125 0.5 0.4375
v 0.125 -0.5 0.4375
v -0.125 -0.5 0.43750000000000006
v -0.125 0.5 0.43750000000000006
v -0.125 0.5 -0.5
v 0.125 0.5 -0.5
v -0.125 -0.5 -0.5
v 0.125 -0.5 -0.5
v -0.12499999999999994 0.5 -0.4375
v -0.12499999999999994 -0.5 -0.4375
v 0.125 -0.5 -0.4375
v 0.125 0.5 -0.4375
vt 0.125 1
vt 0.0625 1
vt 0.0625 0
vt 0.125 0
vt 0.125 0.0625
vt 0.0625 0.0625
vt 0.0625 0
vt 0.125 0
vt 0.125 1
vt 0.0625 1
vt 0.0625 0.9375
vt 0.125 0.9375
vt 1 1
vt 0.9375 1
vt 0.9375 0
vt 1 0
vt 0.0625 0
vt 0.125 0
vt 0.125 1
vt 0.0625 1
vt 0.9375 1
vt 0.875 1
vt 0.875 0
vt 0.9375 0
vt 0.0625 1
vt 0 1
vt 0 0.9375
vt 0.0625 0.9375
vt 0 0
vt 0.0625 0
vt 0.0625 1
vt 0 1
vt 0.0625 0.0625
vt 0 0.0625
vt 0 0
vt 0.0625 0
vt 0 0.875
vt 0.0625 0.875
vt 0.0625 0.9375
vt 0 0.9375
vt 0.875 0
vt 0.9375 0
vt 0.9375 1
vt 0.875 1
vt 0 0.0625
vt 0.0625 0.0625
vt 0.0625 0.125
vt 0 0.125
vt 0.125 1
vt 0.0625 1
vt 0.0625 0
vt 0.125 0
vt 1 0.125
vt 0.9375 0.125
vt 0.9375 0.0625
vt 1 0.0625
vt 1 0.9375
vt 0.9375 0.9375
vt 0.9375 0.875
vt 1 0.875
vt 1 1
vt 0.9375 1
vt 0.9375 0
vt 1 0
vt 0.0625 0
vt 0.125 0
vt 0.125 1
vt 0.0625 1
vt 0.9375 1
vt 0.875 1
vt 0.875 0
vt 0.9375 0
vt 1 1
vt 0.9375 1
vt 0.9375 0.9375
vt 1 0.9375
vt 0 0
vt 0.0625 0
vt 0.0625 1
vt 0 1
vt 1 0.0625
vt 0.9375 0.0625
vt 0.9375 0
vt 1 0
vt 0.875 0.9375
vt 0.9375 0.9375
vt 0.9375 1
vt 0.875 1
vt 0.875 0
vt 0.9375 0
vt 0.9375 1
vt 0.875 1
vt 0.875 0
vt 0.9375 0
vt 0.9375 0.0625
vt 0.875 0.0625
vt 0.125 1
vt 0.0625 1
vt 0.0625 0
vt 0.125 0
vt 0.0625 0.9375
vt 0 0.9375
vt 0 0.875
vt 0.0625 0.875
vt 0.0625 0.125
vt 0 0.125
vt 0 0.0625
vt 0.0625 0.0625
vt 1 1
vt 0.9375 1
vt 0.9375 0
vt 1 0
vt 0.0625 0
vt 0.125 0
vt 0.125 1
vt 0.0625 1
vt 0.9375 1
vt 0.875 1
vt 0.875 0
vt 0.9375 0
vt 0.0625 0.0625
vt 0 0.0625
vt 0 0
vt 0.0625 0
vt 0 0
vt 0.0625 0
vt 0.0625 1
vt 0 1
vt 0.0625 1
vt 0 1
vt 0 0.9375
vt 0.0625 0.9375
vt 0.0625 0
vt 0.125 0
vt 0.125 0.0625
vt 0.0625 0.0625
vt 0.875 0
vt 0.9375 0
vt 0.9375 1
vt 0.875 1
vt 0.0625 0.9375
vt 0.125 0.9375
vt 0.125 1
vt 0.0625 1
vt 0.125 1
vt 0.0625 1
vt 0.0625 0
vt 0.125 0
vt 0.9375 1
vt 0.875 1
vt 0.875 0.9375
vt 0.9375 0.9375
vt 0.9375 0.0625
vt 0.875 0.0625
vt 0.875 0
vt 0.9375 0
vt 1 1
vt 0.9375 1
vt 0.9375 0
vt 1 0
vt 0.0625 0
vt 0.125 0
vt 0.125 1
vt 0.0625 1
vt 0.9375 1
vt 0.875 1
vt 0.875 0
vt 0.9375 0
vt 1 0.0625
vt 0.9375 0.0625
vt 0.9375 0
vt 1 0
vt 0 0
vt 0.0625 0
vt 0.0625 1
vt 0 1
vt 1 1
vt 0.9375 1
vt 0.9375 0.9375
vt 1 0.9375
vt 0.9375 0.0625
vt 1 0.0625
vt 1 0.125
vt 0.9375 0.125
vt 0.875 0
vt 0.9375 0
vt 0.9375 1
vt 0.875 1
vt 0.9375 0.875
vt 1 0.875
vt 1 0.9375
vt 0.9375 0.9375
vt 0.9375 1
vt 0.0625 1
vt 0.0625 0
vt 0.9375 0
vt 0.9375 0
vt 0.9375 1
vt 0.0625 1
vt 0.0625 0
vt 0.0625 0.0625
vt 0.9375 0.0625
vt 0.9375 0.9375
vt 0.0625 0.9375
vt 0.9375 0.0625
vt 0.9375 0.9375
vt 0.0625 0.9375
vt 0.0625 0.0625
vt 0.07105469537448009 0
vt 0.0625 0.9962018514058248
vt 0.92894530462552 1
vt 0.9375 0.0037981485941751547
vt 0.9375 1
vt 0.0625 1
vt 0.0625 0
vt 0.9375 0
vt 0.625 0
vt 0.625 1
vt 0.375 1
vt 0.375 0
vt 0.060463224066381605 0.4375
vt 0 0.43723268017349215
vt 0.0020367759336183955 0.1875
vt 0.0625 0.18802578397930048
vt 0 0.375
vt 0.0625 0.375
vt 0.0625 0.625
vt 0 0.625
vt 0.5625 0
vt 0.625 0
vt 0.625 1
vt 0.5625 1
vt 0.4375 1
vt 0.375 1
vt 0.375 0
vt 0.4375 0
vt 0.625 0
vt 0.625 1
vt 0.375 1
vt 0.375 0
vt 0.9979632240663816 0.625
vt 0.9375 0.6247326801734921
vt 0.9395367759336184 0.375
vt 1 0.3755257839793005
vt 0.9375 0.1875
vt 1 0.1875
vt 1 0.4375
vt 0.9375 0.4375
vt 0.5625 0
vt 0.625 0
vt 0.625 1
vt 0.5625 1
vt 0.4375 1
vt 0.375 1
vt 0.375 0
vt 0.4375 0
vt 0.625 0
vt 0.625 1
vt 0.375 1
vt 0.375 0
vt 0.6247739657022979 0.000002178843867439717
vt 0.625 0.06249999999999989
vt 0.375 0.0625
vt 0.37503268931165296 0
vt 0.375 1
vt 0.375 0.9375
vt 0.625 0.9375
vt 0.625 1
vt 0.5625 0
vt 0.625 0
vt 0.625 1
vt 0.5625 1
vt 0.4375 1
vt 0.375 1
vt 0.375 0
vt 0.4375 0
vt 0.625 0
vt 0.625 1
vt 0.375 1
vt 0.375 0
vt 0.6247739657022979 0.9375021788438674
vt 0.625 0.9999999999999999
vt 0.375 1
vt 0.37503268931165296 0.9375
vt 0.375 0.0625
vt 0.375 0
vt 0.625 0
vt 0.625 0.0625
vt 0.5625 0
vt 0.625 0
vt 0.625 1
vt 0.5625 1
vt 0.4375 1
vt 0.375 1
vt 0.375 0
vt 0.4375 0
vn 2.220446049250313e-16 0 1
vn 0 1 0
vn 0 -1 0
vn -1 0 2.220446049250313e-16
vn 1 0 -2.220446049250313e-16
vn -2.220446049250313e-16 0 -1
vn 0 -1 0
vn 2.220446049250313e-16 0 1
vn 0 1 0
vn 0 -1 0
vn -1 0 2.220446049250313e-16
vn 0 1 0
vn 1 0 -2.220446049250313e-16
vn 0 1 0
vn 0 -1 0
vn 2.220446049250313e-16 0 1
vn -2.220446049250313e-16 0 -1
vn -1 0 2.220446049250313e-16
vn 0 -1 0
vn 1 0 -2.220446049250313e-16
vn 0 1 0
vn 0 -1 0
vn 2.220446049250313e-16 0 1
vn 0 1 0
vn -1 0 2.220446049250313e-16
vn 0 1 0
vn 0 -1 0
vn -2.220446049250313e-16 0 -1
vn 2.220446049250313e-16 0 1
vn 1 0 -2.220446049250313e-16
vn 0 -1 0
vn -1 0 2.220446049250313e-16
vn 0 1 0
vn 0 -1 0
vn -2.220446049250313e-16 0 -1
vn 0 1 0
vn -2.220446049250313e-16 0 -1
vn 0 1 0
vn 0 -1 0
vn 1 0 -2.220446049250313e-16
vn -1 0 2.220446049250313e-16
vn 2.220446049250313e-16 0 1
vn 0 -1 0
vn -2.220446049250313e-16 0 -1
vn 0 1 0
vn 0 -1 0
vn 1 0 -2.220446049250313e-16
vn 0 1 0
vn 1 0 3.172065784643303e-17
vn -1 0 -3.172065784643303e-17
vn 0 1 0
vn 0 -1 0
vn -3.172065784643303e-17 0 1
vn 3.172065784643303e-17 0 -1
vn -1 0 2.220446049250313e-16
vn 0 1 0
vn 0 -1 0
vn 2.220446049250313e-16 0 1
vn -2.220446049250313e-16 0 -1
vn 1 0 -2.220446049250313e-16
vn 0 1 0
vn 0 -1 0
vn -2.220446049250313e-16 0 -1
vn 2.220446049250313e-16 0 1
vn 2.220446049250313e-16 0 1
vn 0 1 0
vn 0 -1 0
vn 1 0 -2.220446049250313e-16
vn -1 0 2.220446049250313e-16
vn -2.220446049250313e-16 0 -1
vn 0 1 0
vn 0 -1 0
vn -1 0 2.220446049250313e-16
vn 1 0 -2.220446049250313e-16
usemtl m_762c3d8f-8574-4e83-fc46-1f1b440d3f9f
f 2/1/1 10/2/1 9/3/1 4/4/1
f 2/5/2 11/6/2 16/7/2 10/8/2
f 9/9/3 13/10/3 12/11/3 4/12/3
f 1/13/4 15/14/4 14/15/4 3/16/4
f 4/17/5 12/18/5 11/19/5 2/20/5
f 5/21/6 7/22/6 8/23/6 6/24/6
f 3/25/7 14/26/7 13/27/7 9/28/7
f 3/29/8 9/30/8 10/31/8 1/32/8
f 10/33/9 16/34/9 15/35/9 1/36/9
f 8/37/10 13/38/10 14/39/10 6/40/10
f 6/41/11 14/42/11 15/43/11 5/44/11
f 5/45/12 15/46/12 16/47/12 7/48/12
f 18/49/13 26/50/13 25/51/13 20/52/13
f 18/53/14 27/54/14 32/55/14 26/56/14
f 25/57/15 29/58/15 28/59/15 20/60/15
f 17/61/16 31/62/16 30/63/16 19/64/16
f 20/65/17 28/66/17 27/67/17 18/68/17
f 21/69/18 23/70/18 24/71/18 22/72/18
f 19/73/19 30/74/19 29/75/19 25/76/19
f 19/77/20 25/78/20 26/79/20 17/80/20
f 26/81/21 32/82/21 31/83/21 17/84/21
f 24/85/22 29/86/22 30/87/22 22/88/22
f 22/89/23 30/90/23 31/91/23 21/92/23
f 21/93/24 31/94/24 32/95/24 23/96/24
f 34/97/25 42/98/25 41/99/25 36/100/25
f 34/101/26 43/102/26 48/103/26 42/104/26
f 41/105/27 45/106/27 44/107/27 36/108/27
f 33/109/28 47/110/28 46/111/28 35/112/28
f 36/113/29 44/114/29 43/115/29 34/116/29
f 37/117/30 39/118/30 40/119/30 38/120/30
f 35/121/31 46/122/31 45/123/31 41/124/31
f 35/125/32 41/126/32 42/127/32 33/128/32
f 42/129/33 48/130/33 47/131/33 33/132/33
f 40/133/34 45/134/34 46/135/34 38/136/34
f 38/137/35 46/138/35 47/139/35 37/140/35
f 37/141/36 47/142/36 48/143/36 39/144/36
f 50/145/37 58/146/37 57/147/37 52/148/37
f 50/149/38 59/150/38 64/151/38 58/152/38
f 57/153/39 61/154/39 60/155/39 52/156/39
f 49/157/40 63/158/40 62/159/40 51/160/40
f 52/161/41 60/162/41 59/163/41 50/164/41
f 53/165/42 55/166/42 56/167/42 54/168/42
f 51/169/43 62/170/43 61/171/43 57/172/43
f 51/173/44 57/174/44 58/175/44 49/176/44
f 58/177/45 64/178/45 63/179/45 49/180/45
f 56/181/46 61/182/46 62/183/46 54/184/46
f 54/185/47 62/186/47 63/187/47 53/188/47
f 53/189/48 63/190/48 64/191/48 55/192/48
f 66/193/49 65/194/49 67/195/49 68/196/49
f 71/197/50 69/198/50 70/199/50 72/200/50
f 69/201/51 65/202/51 66/203/51 70/204/51
f 68/205/52 67/206/52 71/207/52 72/208/52
f 67/209/53 65/210/53 69/211/53 71/212/53
f 70/213/54 66/214/54 68/215/54 72/216/54
f 75/217/55 73/218/55 74/219/55 76/220/55
f 73/221/56 77/222/56 80/223/56 74/224/56
f 76/225/57 79/226/57 78/227/57 75/228/57
f 75/229/58 78/230/58 77/231/58 73/232/58
f 74/233/59 80/234/59 79/235/59 76/236/59
f 83/237/60 81/238/60 82/239/60 84/240/60
f 81/241/61 85/242/61 88/243/61 82/244/61
f 84/245/62 87/246/62 86/247/62 83/248/62
f 83/249/63 86/250/63 85/251/63 81/252/63
f 82/253/64 88/254/64 87/255/64 84/256/64
f 91/257/65 89/258/65 90/259/65 92/260/65
f 89/261/66 93/262/66 96/263/66 90/264/66
f 92/265/67 95/266/67 94/267/67 91/268/67
f 91/269/68 94/270/68 93/271/68 89/272/68
f 90/273/69 96/274/69 95/275/69 92/276/69
f 99/277/70 97/278/70 98/279/70 100/280/70
f 97/281/71 101/282/71 104/283/71 98/284/71
f 100/285/72 103/286/72 102/287/72 99/288/72
f 99/289/73 102/290/73 101/291/73 97/292/73
f 98/293/74 104/294/74 103/295/74 100/296/74