# Made in Blockbench 5.1.6
mtllib materials.mtl

o mesh
v 0.5 0.5 0.5
v 0.5 0.5 -0.5
v 0.5 -0.5 0.5
v 0.5 -0.5 -0.5
v -0.5 0.5 0.5
v -0.5 -0.5 -0.5
v -0.5 -0.5 0.5
v 0 0.5 0.5
v 0 0 -0.5
v 0 -0.5 -0.5
v 0 -0.5 0.5
v 0 0.0625 0
v -0.5 0 0
v -0.5 -0.5 0
v 0 -0.5 0
v 0.5 -0.5 0
v 0.5 0.5 0
vt 1 1
vt 0.5 1
vt 0.5 0
vt 1 0
vt 0.5 0.5
vt 0.5 0
vt 0 0
vt 0.5 1
vt 0.5 0.5
vt 1 0.5
vt 1 1
vt 1 0
vt 1 0.5
vt 0.5 0.5
vt 0.5 0
vt 1 1
vt 0.5 1
vt 0.5 0
vt 1 0
vt 0 0
vt 0.5 0
vt 0.5 0.5
vt 0 1
vt 0 1
vt 0 0.5
vt 0.5 0.5
vt 0.5 1
vt 1 0
vt 0.5 0.5
vt 0.5 0
vt 0.5 0
vt 0.5 0.5
vt 0 0.5
vt 0 0
vt 0 0
vt 0.5 0
vt 0.5 1
vt 0 1
vt 0.5 0
vt 0.5 0.5
vt 0 0.5
vt 0 0
vt 1 1
vt 0.5 0.5
vt 0.5 0
vt 1 0
vt 0 1
vt 0 0.5
vt 0.5 0.5
vt 0.5 1
vt 0.5 1
vt 0.5 0.5
vt 1 0.5
vt 1 1
vt 0 0
vt 0.5 0
vt 0.5 1
vt 0 1
vt 1 0
vt 1 0.5
vt 0.5 0.5
vt 0.5 0
vn 1 0 0
vn 1 0 0
vn -0.6556100681071858 0.7492686492653552 -0.0936585811581694
vn 0 -1 0
vn 0 0 1
vn 0 0 -1
vn -0.08804509063256238 0.7043607250604991 -0.7043607250604991
vn 0 0 -1
vn 0 -1 0
vn 0 0 1
vn -0.0936585811581694 0.7492686492653552 -0.6556100681071858
vn -1 0 0
vn 0 -1 0
vn 0 -1 0
vn 1 0 0
vn -0.658504607868518 0.7525766947068778 0
usemtl m_635a770c-ed4b-cc47-ff69-54eac582a451
f 2/1/1 17/2/1 16/3/1 4/4/1
f 13/5/2 14/6/2 6/7/2
f 9/8/3 12/9/3 17/10/3 2/11/3
f 4/12/4 16/13/4 15/14/4 10/15/4
f 1/16/5 8/17/5 11/18/5 3/19/5
f 4/20/6 10/21/6 9/22/6 2/23/6
f 6/24/7 13/25/7 12/26/7 9/27/7
f 6/28/8 9/29/8 10/30/8
f 10/31/9 15/32/9 14/33/9 6/34/9
f 7/35/10 11/36/10 8/37/10 5/38/10
f 8/39/11 12/40/11 13/41/11 5/42/11
f 5/43/12 13/44/12 14/45/12 7/46/12
f 7/47/13 14/48/13 15/49/13 11/50/13
f 11/51/14 15/52/14 16/53/14 3/54/14
f 3/55/15 16/56/15 17/57/15 1/58/15
f 1/59/16 17/60/16 12/61/16 8/62/16